<mxfile host="app.diagrams.net" modified="2024-05-30T07:54:02.954Z" agent="Mozilla/5.0 (Windows NT 10.0; Win64; x64) AppleWebKit/537.36 (KHTML, like Gecko) Chrome/125.0.0.0 Safari/537.36" etag="hV2WcIz40E-nh-tt3Syo" version="24.4.10" type="google">
  <diagram name="Страница — 1" id="Hvq80VNMqJig34xqhuac">
    <mxGraphModel grid="1" page="1" gridSize="10" guides="1" tooltips="1" connect="1" arrows="1" fold="1" pageScale="1" pageWidth="827" pageHeight="1169" math="0" shadow="0">
      <root>
        <mxCell id="0" />
        <mxCell id="1" parent="0" />
        <mxCell id="qG3oPIJo5Xr3DXwwWbxI-10" style="edgeStyle=orthogonalEdgeStyle;rounded=0;orthogonalLoop=1;jettySize=auto;html=1;entryX=0.5;entryY=0;entryDx=0;entryDy=0;" edge="1" parent="1" source="qG3oPIJo5Xr3DXwwWbxI-1" target="qG3oPIJo5Xr3DXwwWbxI-2">
          <mxGeometry relative="1" as="geometry" />
        </mxCell>
        <mxCell id="qG3oPIJo5Xr3DXwwWbxI-1" value="&lt;font style=&quot;font-size: 14px;&quot;&gt;Початок&lt;/font&gt;" style="rounded=1;whiteSpace=wrap;html=1;arcSize=50;" vertex="1" parent="1">
          <mxGeometry x="340" y="60" width="120" height="40" as="geometry" />
        </mxCell>
        <mxCell id="qG3oPIJo5Xr3DXwwWbxI-11" style="edgeStyle=orthogonalEdgeStyle;rounded=0;orthogonalLoop=1;jettySize=auto;html=1;entryX=0.5;entryY=0;entryDx=0;entryDy=0;" edge="1" parent="1" source="qG3oPIJo5Xr3DXwwWbxI-2" target="qG3oPIJo5Xr3DXwwWbxI-3">
          <mxGeometry relative="1" as="geometry" />
        </mxCell>
        <mxCell id="qG3oPIJo5Xr3DXwwWbxI-2" value="&lt;font style=&quot;font-size: 14px;&quot;&gt;Отримання зображень та розміток&lt;/font&gt;" style="rounded=0;whiteSpace=wrap;html=1;" vertex="1" parent="1">
          <mxGeometry x="340" y="150" width="120" height="60" as="geometry" />
        </mxCell>
        <mxCell id="qG3oPIJo5Xr3DXwwWbxI-12" style="edgeStyle=orthogonalEdgeStyle;rounded=0;orthogonalLoop=1;jettySize=auto;html=1;" edge="1" parent="1" source="qG3oPIJo5Xr3DXwwWbxI-3" target="qG3oPIJo5Xr3DXwwWbxI-4">
          <mxGeometry relative="1" as="geometry" />
        </mxCell>
        <mxCell id="qG3oPIJo5Xr3DXwwWbxI-3" value="&lt;font style=&quot;font-size: 14px;&quot;&gt;Аугментація зображень&lt;/font&gt;" style="rounded=0;whiteSpace=wrap;html=1;" vertex="1" parent="1">
          <mxGeometry x="340" y="260" width="120" height="60" as="geometry" />
        </mxCell>
        <mxCell id="qG3oPIJo5Xr3DXwwWbxI-13" style="edgeStyle=orthogonalEdgeStyle;rounded=0;orthogonalLoop=1;jettySize=auto;html=1;entryX=0.5;entryY=0;entryDx=0;entryDy=0;" edge="1" parent="1" source="qG3oPIJo5Xr3DXwwWbxI-4" target="qG3oPIJo5Xr3DXwwWbxI-5">
          <mxGeometry relative="1" as="geometry" />
        </mxCell>
        <mxCell id="qG3oPIJo5Xr3DXwwWbxI-4" value="&lt;font style=&quot;font-size: 14px;&quot;&gt;Розбитя на навчальну та валідаційну вибірки&lt;/font&gt;" style="rounded=0;whiteSpace=wrap;html=1;" vertex="1" parent="1">
          <mxGeometry x="340" y="370" width="120" height="70" as="geometry" />
        </mxCell>
        <mxCell id="qG3oPIJo5Xr3DXwwWbxI-14" style="edgeStyle=orthogonalEdgeStyle;rounded=0;orthogonalLoop=1;jettySize=auto;html=1;entryX=0.5;entryY=0;entryDx=0;entryDy=0;" edge="1" parent="1" source="qG3oPIJo5Xr3DXwwWbxI-5" target="qG3oPIJo5Xr3DXwwWbxI-6">
          <mxGeometry relative="1" as="geometry" />
        </mxCell>
        <mxCell id="qG3oPIJo5Xr3DXwwWbxI-5" value="&lt;font style=&quot;font-size: 14px;&quot;&gt;Підготовка моделі&lt;/font&gt;" style="rounded=0;whiteSpace=wrap;html=1;" vertex="1" parent="1">
          <mxGeometry x="340" y="490" width="120" height="60" as="geometry" />
        </mxCell>
        <mxCell id="qG3oPIJo5Xr3DXwwWbxI-15" style="edgeStyle=orthogonalEdgeStyle;rounded=0;orthogonalLoop=1;jettySize=auto;html=1;entryX=0.5;entryY=0;entryDx=0;entryDy=0;" edge="1" parent="1" source="qG3oPIJo5Xr3DXwwWbxI-6" target="qG3oPIJo5Xr3DXwwWbxI-7">
          <mxGeometry relative="1" as="geometry" />
        </mxCell>
        <mxCell id="qG3oPIJo5Xr3DXwwWbxI-6" value="&lt;font style=&quot;font-size: 14px;&quot;&gt;Навчання мережі&lt;/font&gt;" style="rounded=0;whiteSpace=wrap;html=1;" vertex="1" parent="1">
          <mxGeometry x="340" y="600" width="120" height="60" as="geometry" />
        </mxCell>
        <mxCell id="qG3oPIJo5Xr3DXwwWbxI-16" style="edgeStyle=orthogonalEdgeStyle;rounded=0;orthogonalLoop=1;jettySize=auto;html=1;entryX=0.5;entryY=0;entryDx=0;entryDy=0;" edge="1" parent="1" source="qG3oPIJo5Xr3DXwwWbxI-7" target="qG3oPIJo5Xr3DXwwWbxI-8">
          <mxGeometry relative="1" as="geometry" />
        </mxCell>
        <mxCell id="qG3oPIJo5Xr3DXwwWbxI-7" value="&lt;font style=&quot;font-size: 14px;&quot;&gt;Оцінка моделі&lt;/font&gt;&lt;span style=&quot;color: rgba(0, 0, 0, 0); font-family: monospace; font-size: 0px; text-align: start; text-wrap: nowrap;&quot;&gt;%3CmxGraphModel%3E%3Croot%3E%3CmxCell%20id%3D%220%22%2F%3E%3CmxCell%20id%3D%221%22%20parent%3D%220%22%2F%3E%3CmxCell%20id%3D%222%22%20value%3D%22%26lt%3Bfont%20style%3D%26quot%3Bfont-size%3A%2014px%3B%26quot%3B%26gt%3B%D0%9E%D1%82%D1%80%D0%B8%D0%BC%D0%B0%D0%BD%D0%BD%D1%8F%20%D0%B7%D0%BE%D0%B1%D1%80%D0%B0%D0%B6%D0%B5%D0%BD%D1%8C%20%D1%82%D0%B0%20%D1%80%D0%BE%D0%B7%D0%BC%D1%96%D1%82%D0%BE%D0%BA%26lt%3B%2Ffont%26gt%3B%22%20style%3D%22rounded%3D0%3BwhiteSpace%3Dwrap%3Bhtml%3D1%3B%22%20vertex%3D%221%22%20parent%3D%221%22%3E%3CmxGeometry%20x%3D%22340%22%20y%3D%22490%22%20width%3D%22120%22%20height%3D%2260%22%20as%3D%22geometry%22%2F%3E%3C%2FmxCell%3E%3C%2Froot%3E%3C%2FmxGraphModel%3E&lt;/span&gt;" style="rounded=0;whiteSpace=wrap;html=1;" vertex="1" parent="1">
          <mxGeometry x="340" y="710" width="120" height="60" as="geometry" />
        </mxCell>
        <mxCell id="qG3oPIJo5Xr3DXwwWbxI-17" style="edgeStyle=orthogonalEdgeStyle;rounded=0;orthogonalLoop=1;jettySize=auto;html=1;entryX=0.5;entryY=0;entryDx=0;entryDy=0;" edge="1" parent="1" source="qG3oPIJo5Xr3DXwwWbxI-8" target="qG3oPIJo5Xr3DXwwWbxI-9">
          <mxGeometry relative="1" as="geometry" />
        </mxCell>
        <mxCell id="qG3oPIJo5Xr3DXwwWbxI-8" value="&lt;font style=&quot;font-size: 14px;&quot;&gt;Збереження моделі&lt;/font&gt;" style="rounded=0;whiteSpace=wrap;html=1;" vertex="1" parent="1">
          <mxGeometry x="340" y="820" width="120" height="60" as="geometry" />
        </mxCell>
        <mxCell id="qG3oPIJo5Xr3DXwwWbxI-9" value="&lt;font style=&quot;font-size: 14px;&quot;&gt;Кінець&lt;/font&gt;" style="rounded=1;whiteSpace=wrap;html=1;arcSize=50;" vertex="1" parent="1">
          <mxGeometry x="340" y="930" width="120" height="40" as="geometry" />
        </mxCell>
      </root>
    </mxGraphModel>
  </diagram>
</mxfile>
